<svg width="83" height="44" viewBox="0 0 83 44" fill="none" xmlns="http://www.w3.org/2000/svg">
<ellipse cx="3.15405" cy="3.13376" rx="3.15399" ry="3.13351" fill="#EE3D48"/>
<ellipse cx="3.15399" cy="12.5341" rx="3.15399" ry="3.13351" fill="#EE3D48"/>
<ellipse cx="3.15399" cy="21.9345" rx="3.15399" ry="3.13351" fill="#EE3D48"/>
<ellipse cx="3.15399" cy="31.3352" rx="3.15399" ry="3.13351" fill="#EE3D48"/>
<ellipse cx="3.15399" cy="40.7358" rx="3.15399" ry="3.13351" fill="#EE3D48"/>
<ellipse cx="12.616" cy="3.13351" rx="3.15399" ry="3.13351" fill="#EE3D48"/>
<ellipse cx="12.616" cy="12.5341" rx="3.15399" ry="3.13351" fill="#EE3D48"/>
<ellipse cx="12.616" cy="21.9345" rx="3.15399" ry="3.13351" fill="#EE3D48"/>
<ellipse cx="12.616" cy="31.3352" rx="3.15399" ry="3.13351" fill="#EE3D48"/>
<ellipse cx="12.616" cy="40.7358" rx="3.15399" ry="3.13351" fill="#EE3D48"/>
<ellipse cx="22.0779" cy="3.13351" rx="3.15399" ry="3.13351" fill="#EE3D48"/>
<ellipse cx="22.0779" cy="12.5341" rx="3.15399" ry="3.13351" fill="#EE3D48"/>
<ellipse cx="22.0779" cy="21.9345" rx="3.15399" ry="3.13351" fill="#EE3D48"/>
<ellipse cx="22.0779" cy="31.3352" rx="3.15399" ry="3.13351" fill="#EE3D48"/>
<ellipse cx="22.0779" cy="40.7358" rx="3.15399" ry="3.13351" fill="#EE3D48"/>
<ellipse cx="31.5399" cy="3.13351" rx="3.15399" ry="3.13351" fill="#EE3D48"/>
<ellipse cx="31.5399" cy="12.5341" rx="3.15399" ry="3.13351" fill="#EE3D48"/>
<ellipse cx="31.5399" cy="21.9345" rx="3.15399" ry="3.13351" fill="#EE3D48"/>
<ellipse cx="31.5399" cy="31.3352" rx="3.15399" ry="3.13351" fill="#EE3D48"/>
<ellipse cx="31.5399" cy="40.7358" rx="3.15399" ry="3.13351" fill="#EE3D48"/>
<ellipse cx="41.0019" cy="3.13351" rx="3.15399" ry="3.13351" fill="#EE3D48"/>
<ellipse cx="50.4639" cy="3.13351" rx="3.15399" ry="3.13351" fill="#EE3D48"/>
<ellipse cx="59.9258" cy="3.13351" rx="3.15399" ry="3.13351" fill="#EE3D48"/>
<ellipse cx="69.3878" cy="3.13351" rx="3.15399" ry="3.13351" fill="#EE3D48"/>
<ellipse cx="78.8497" cy="3.13351" rx="3.15399" ry="3.13351" fill="#EE3D48"/>
<ellipse cx="41.0019" cy="12.5341" rx="3.15399" ry="3.13351" fill="#EE3D48"/>
<ellipse cx="50.4639" cy="12.5341" rx="3.15399" ry="3.13351" fill="#EE3D48"/>
<ellipse cx="59.9258" cy="12.5341" rx="3.15399" ry="3.13351" fill="#EE3D48"/>
<ellipse cx="69.3878" cy="12.5341" rx="3.15399" ry="3.13351" fill="#EE3D48"/>
<ellipse cx="78.8497" cy="12.5341" rx="3.15399" ry="3.13351" fill="#EE3D48"/>
<ellipse cx="41.0019" cy="21.9345" rx="3.15399" ry="3.13351" fill="#EE3D48"/>
<ellipse cx="50.4639" cy="21.9345" rx="3.15399" ry="3.13351" fill="#EE3D48"/>
<ellipse cx="59.9258" cy="21.9345" rx="3.15399" ry="3.13351" fill="#EE3D48"/>
<ellipse cx="69.3878" cy="21.9345" rx="3.15399" ry="3.13351" fill="#EE3D48"/>
<ellipse cx="78.8497" cy="21.9345" rx="3.15399" ry="3.13351" fill="#EE3D48"/>
<ellipse cx="41.0019" cy="31.3352" rx="3.15399" ry="3.13351" fill="#EE3D48"/>
<ellipse cx="50.4639" cy="31.3352" rx="3.15399" ry="3.13351" fill="#EE3D48"/>
<ellipse cx="59.9258" cy="31.3352" rx="3.15399" ry="3.13351" fill="#EE3D48"/>
<ellipse cx="69.3878" cy="31.3352" rx="3.15399" ry="3.13351" fill="#EE3D48"/>
<ellipse cx="78.8497" cy="31.3352" rx="3.15399" ry="3.13351" fill="#EE3D48"/>
<ellipse cx="41.0019" cy="40.7358" rx="3.15399" ry="3.13351" fill="#EE3D48"/>
<ellipse cx="50.4639" cy="40.7358" rx="3.15399" ry="3.13351" fill="#EE3D48"/>
<ellipse cx="59.9258" cy="40.7358" rx="3.15399" ry="3.13351" fill="#EE3D48"/>
<ellipse cx="69.3878" cy="40.7358" rx="3.15399" ry="3.13351" fill="#EE3D48"/>
<ellipse cx="78.8497" cy="40.7358" rx="3.15399" ry="3.13351" fill="#EE3D48"/>
</svg>
