<svg width="39" height="20" viewBox="0 0 39 20" fill="none" xmlns="http://www.w3.org/2000/svg"><path d="M38.235 1.65a1.649 1.649 0 10-3.3 0c0 .84.637 1.505 1.476 1.592l-8.278 6.251 8.48 6.107V3.3c.898 0 1.622-.724 1.622-1.65zM10.13 9.494L1.823 3.27c.81-.087 1.477-.753 1.477-1.592C3.3.782 2.576.03 1.65.03A1.63 1.63 0 000 1.68c0 .897.724 1.65 1.65 1.65v12.3l8.48-6.135zm9.001 6.135l8.451-6.165-8.277-6.194c.81-.087 1.476-.753 1.476-1.592a1.65 1.65 0 00-1.65-1.65 1.63 1.63 0 00-1.65 1.65c0 .84.637 1.505 1.476 1.592L10.68 9.464l8.451 6.165zm-.549.608l-8.162-5.933-8.22 5.933h16.382zm17.481 0l-8.22-5.933-8.162 5.933h16.382zm.491.782H1.65V20h34.905v-2.98z" fill="#fff"/></svg>