<svg width="42" height="22" viewBox="0 0 42 22" fill="none" xmlns="http://www.w3.org/2000/svg">
<path d="M10.5 0.5C4.71679 0.5 0 5.2168 0 11C0 16.7891 4.71094 21.5 10.5 21.5C14.8945 21.5 17.5781 19.0859 19.6406 16.1094C19.0254 15.1191 18.5098 14.1406 18 13.2031C16.1602 16.2441 14.0977 18.5 10.5 18.5C6.36328 18.5 3 15.1367 3 11C3 6.83985 6.33985 3.5 10.5 3.5C12.9258 3.5 14.4668 4.36719 15.8906 5.84375C17.3145 7.32031 18.5156 9.45312 19.7344 11.7031C20.9531 13.9531 22.1895 16.3203 24 18.2188C25.8105 20.1172 28.3066 21.5 31.5 21.5C37.2832 21.5 42 16.7832 42 11C42 5.21094 37.2891 0.5 31.5 0.5C27.1289 0.5 24.4277 2.83789 22.3594 5.75C22.9746 6.72266 23.5371 7.67773 24.0469 8.60938C25.875 5.65625 27.9141 3.5 31.5 3.5C35.6367 3.5 39 6.86328 39 11C39 15.1602 35.6602 18.5 31.5 18.5C29.1152 18.5 27.6152 17.6328 26.2031 16.1563C24.791 14.6797 23.584 12.5469 22.3594 10.2969C21.1348 8.04688 19.875 5.67969 18.0469 3.78125C16.2188 1.88281 13.7227 0.5 10.5 0.5H10.5Z" fill="#EE3D48"/>
</svg>
