<svg width="77" height="18" viewBox="0 0 77 18" fill="none" xmlns="http://www.w3.org/2000/svg"><path fill-rule="evenodd" clip-rule="evenodd" d="M60.649 3.023h2.9V1.79h-2.9c-.555 0-.802.309-.802.617 0 .37.247.617.802.617zm2.9 3.702V4.627h-1.172l-2.283 2.098h-5.8l-.555-1.049h-3.764l-.493 1.05h-2.53l3.27-6.603h3.393l3.436 6.564 2.487-2.245c-1.604-.185-2.282-1.049-2.282-2.036v-.123c0-1.11.74-2.16 3.023-2.16h5.8v6.602h-2.53zM50.777 4.01h2.221l-1.11-2.282-1.11 2.282zm-7.095 2.715h-2.53V.123h6.972v1.728h-4.442v4.874zM35.415 5.06c1.974 0 2.406-.864 2.406-1.604v-.123c0-.679-.432-1.543-2.406-1.543-1.975 0-2.407.864-2.407 1.543v.123c0 .679.432 1.604 2.407 1.604zm-4.998-1.79c0-1.234.555-3.27 4.813-3.27h.37c4.257 0 4.812 2.036 4.812 3.27v.247c0 1.234-.555 3.331-4.812 3.331h-.37c-4.258 0-4.813-2.097-4.813-3.331V3.27zm-3.949-1.48h-2.653v1.233h2.653c.617 0 .864-.247.864-.617s-.247-.617-.864-.617zm3.456.678c0 1.234-.74 2.221-3.147 2.221h-2.962v2.098h-2.53V.185h5.492c2.468 0 3.146.926 3.146 2.16v.123zM15.548 5.059c1.974 0 2.406-.864 2.406-1.604v-.123c0-.679-.432-1.543-2.406-1.543-1.975 0-2.406.864-2.406 1.543v.123c0 .679.431 1.604 2.406 1.604zm-5.06-1.789c0-1.234.556-3.27 4.813-3.27h.37c4.257 0 4.813 2.036 4.813 3.27v.247c0 1.234-.556 3.331-4.813 3.331h-.37c-4.257 0-4.812-2.097-4.812-3.331V3.27zm-6.91-1.357c0 1.295-.061 2.53-.37 3.085h3.27V1.913h-2.9zM0 7.897v-2.9h.864c.37-.74.432-1.974.432-4.874h7.712v4.875h1.049v2.9H7.712V6.724H2.345v1.172H0zm71.632 4.752h2.9v-1.234h-2.9c-.555 0-.802.308-.802.617 0 .37.247.617.802.617zm2.839 3.64v-2.036h-1.173l-2.282 2.097H67.93l2.53-2.283c-1.605-.185-2.284-1.048-2.284-2.036v-.123c0-1.11.74-2.16 3.024-2.16H77v6.54h-2.53zm-7.096.061h-2.53v-4.133l-4.133 4.133h-2.53v-6.6h2.53v4.133l4.134-4.133h2.53v6.601zm-12.154 0h-7.589v-6.6h2.53v4.874h3.825V9.749h2.53v4.874h1.048v2.9h-2.344V16.35zm-7.96 0h-3.27l-3.27-2.961v2.961h-2.529v-6.6h2.53v2.591l3.27-2.591h3.146l-3.825 3.023 3.949 3.578zm-9.439 0h-2.776l-.556-1.049h-3.763l-.494 1.05h-2.53l3.27-6.602h3.394l3.455 6.601zm-6.293-2.714h2.221l-1.11-2.283-1.111 2.283zm-10.365-2.16c0 1.296-.062 2.53-.37 3.085h3.27v-3.085h-2.9zm-3.579 5.985v-2.838h.864c.37-.74.432-1.975.432-4.874h7.712v4.812h1.049v2.9h-2.345v-1.172H19.93v1.172h-2.345zm-7.897-1.11V9.748h7.342v1.604h-4.813v.802h4.751v1.604h-4.75v.925h4.874v1.666H9.688zm-4.134-4.998H2.901v1.234h2.653c.617 0 .864-.247.864-.617s-.247-.617-.864-.617zm3.455.678c0 1.234-.74 2.222-3.146 2.222H2.9v2.097H.371v-6.6h5.492c2.467 0 3.146.925 3.146 2.16v.122z" fill="#000"/></svg>